<svg xmlns="http://www.w3.org/2000/svg" width="19.675" height="19.677" viewBox="0 0 19.675 19.677">
    <path id="Path_99" data-name="Path 99"
        d="M20.4,17.017a2.381,2.381,0,0,1-.238,1.018,3.847,3.847,0,0,1-.635.952A4.208,4.208,0,0,1,18,20.089a4.69,4.69,0,0,1-1.821.357,7.782,7.782,0,0,1-3.044-.682,16.405,16.405,0,0,1-3.214-1.849A26.85,26.85,0,0,1,6.859,15.3a26.537,26.537,0,0,1-2.6-3.052A16.648,16.648,0,0,1,2.431,9.061a7.865,7.865,0,0,1-.673-3.053,4.831,4.831,0,0,1,.336-1.8A4.3,4.3,0,0,1,3.165,2.646,2.738,2.738,0,0,1,5.11,1.769a1.755,1.755,0,0,1,.756.168,1.523,1.523,0,0,1,.626.523l2.17,3.053a3.194,3.194,0,0,1,.374.654,1.476,1.476,0,0,1,.131.569,1.268,1.268,0,0,1-.2.663,3.176,3.176,0,0,1-.523.663L7.734,8.8a.5.5,0,0,0-.15.374.847.847,0,0,0,.029.214c.029.075.056.131.075.187a7.748,7.748,0,0,0,.868,1.19c.42.486.868.981,1.353,1.475.5.5.989.952,1.484,1.372a7.166,7.166,0,0,0,1.2.86c.046.019.1.046.168.075a.645.645,0,0,0,.238.037.515.515,0,0,0,.383-.158l.714-.7a2.864,2.864,0,0,1,.673-.523,1.245,1.245,0,0,1,.663-.2,1.49,1.49,0,0,1,.569.119,3.609,3.609,0,0,1,.654.364l3.1,2.194a1.416,1.416,0,0,1,.513.6A1.918,1.918,0,0,1,20.4,17.017Z"
        transform="translate(-1.258 -1.269)" fill="none" stroke="#fff" stroke-width="0.999" />
    <path id="Path_100" data-name="Path 100"
        d="M15.215,7.779A3.7,3.7,0,0,0,14.123,5.66a3.189,3.189,0,0,0-2.176-1.149"
        transform="translate(0.691 -0.744)" fill="none" stroke="#fff" stroke-linecap="round"
        stroke-linejoin="round" stroke-width="0.999" />
    <path id="Path_101" data-name="Path 101" d="M18.484,8.306a6.533,6.533,0,0,0-6.537-6.537"
        transform="translate(0.691 -1.269)" fill="none" stroke="#fff" stroke-linecap="round"
        stroke-linejoin="round" stroke-width="0.999" />
</svg>
  