<svg xmlns="http://www.w3.org/2000/svg" width="23.176" height="23.176" viewBox="0 0 23.176 23.176">
    <path id="Path_102" data-name="Path 102"
        d="M13.088,24.176A11.088,11.088,0,1,0,2,13.088,11.088,11.088,0,0,0,13.088,24.176Z"
        transform="translate(-1.5 -1.5)" fill="none" stroke="#fff" stroke-linecap="round"
        stroke-linejoin="round" stroke-width="1" />
    <path id="Path_103" data-name="Path 103" d="M8.05,3H9.159a31.516,31.516,0,0,0,0,19.959H8.05"
        transform="translate(-0.897 -1.391)" fill="none" stroke="#fff" stroke-linecap="round"
        stroke-linejoin="round" stroke-width="1" />
    <path id="Path_104" data-name="Path 104" d="M15,3a31.516,31.516,0,0,1,0,19.959"
        transform="translate(-0.085 -1.391)" fill="none" stroke="#fff" stroke-linecap="round"
        stroke-linejoin="round" stroke-width="1" />
    <path id="Path_105" data-name="Path 105" d="M3,16.109V15a31.516,31.516,0,0,0,19.959,0v1.109"
        transform="translate(-1.391 -0.085)" fill="none" stroke="#fff" stroke-linecap="round"
        stroke-linejoin="round" stroke-width="1" />
    <path id="Path_106" data-name="Path 106" d="M3,9.159a31.516,31.516,0,0,1,19.959,0"
        transform="translate(-1.391 -0.897)" fill="none" stroke="#fff" stroke-linecap="round"
        stroke-linejoin="round" stroke-width="1" />
</svg>
  