<svg xmlns="http://www.w3.org/2000/svg" xmlns:xlink="http://www.w3.org/1999/xlink" width="148.646" height="170.582" viewBox="0 0 148.646 170.582">
  <defs>
    <clipPath id="clip-path">
      <rect id="Rectangle_7" data-name="Rectangle 7" width="148.646" height="170.582" fill="none"/>
    </clipPath>
    <clipPath id="clip-path-2">
      <rect id="Rectangle_6" data-name="Rectangle 6" width="148.646" height="36.815" fill="none"/>
    </clipPath>
  </defs>
  <g id="Group_4" data-name="Group 4" clip-path="url(#clip-path)">
    <g id="Group_3" data-name="Group 3" transform="translate(0 133.767)">
      <g id="Group_2" data-name="Group 2">
        <g id="Group_1" data-name="Group 1" clip-path="url(#clip-path-2)">
          <path id="Path_1" data-name="Path 1" d="M6.123,128.82a4.247,4.247,0,0,0,1.28.879,3.774,3.774,0,0,0,1.558.324,3.7,3.7,0,0,0,1.527-.324,4.253,4.253,0,0,0,2.16-2.16,3.7,3.7,0,0,0,.325-1.527,3.771,3.771,0,0,0-.325-1.558,4.05,4.05,0,0,0-.879-1.265,4.159,4.159,0,0,0-1.28-.85,3.863,3.863,0,0,0-1.527-.307,3.942,3.942,0,0,0-1.558.307,4.159,4.159,0,0,0-1.28.85,3.839,3.839,0,0,0-.864,1.265,3.918,3.918,0,0,0-.309,1.558,3.844,3.844,0,0,0,.309,1.527,4.018,4.018,0,0,0,.864,1.28" transform="translate(0.924 -110.985)" fill="#fff"/>
          <path id="Path_2" data-name="Path 2" d="M13.649,128.82a4.037,4.037,0,0,0,1.265.879,3.85,3.85,0,0,0,1.589.324,3.774,3.774,0,0,0,1.558-.324,4.05,4.05,0,0,0,1.265-.879,4.156,4.156,0,0,0,.848-1.28,3.844,3.844,0,0,0,.309-1.527,3.918,3.918,0,0,0-.309-1.558,3.948,3.948,0,0,0-3.672-2.422,4.023,4.023,0,0,0-1.589.307,3.956,3.956,0,0,0-2.422,3.673,3.844,3.844,0,0,0,.309,1.527,4.135,4.135,0,0,0,.848,1.28" transform="translate(2.332 -110.985)" fill="#fff"/>
          <path id="Path_3" data-name="Path 3" d="M35.93,134.853q0-1.6-.015-4.011t-.015-5.925H32.1a3.931,3.931,0,0,0-3.008,1.59,5.031,5.031,0,0,0-.881,3.348v9.689H.012v3.888q-.215,3.857,3.241,3.826H29.727a5.654,5.654,0,0,0,2.469-.478,5.478,5.478,0,0,0,1.975-1.5,7.277,7.277,0,0,0,1.311-2.422,10.372,10.372,0,0,0,.478-3.286v-.864c0-.31-.006-.767-.015-1.374s-.015-1.435-.015-2.484" transform="translate(0 -110.446)" fill="#fff"/>
          <path id="Path_4" data-name="Path 4" d="M55.206,127.3q.014,7.328.015,14.518H47.167v-29.1h-3.8a3.718,3.718,0,0,0-2.7,1.142,5.549,5.549,0,0,0-1.219,2.993v25.056a8.973,8.973,0,0,0-2.192.077,5.051,5.051,0,0,0-1.79.633,3.685,3.685,0,0,0-1.25,1.233,4,4,0,0,0-.54,1.914v3.764h23.2q5.739-.185,5.986-6.356V112.723H55.191q0,7.25.015,14.58" transform="translate(6.288 -112.723)" fill="#fff"/>
          <path id="Path_5" data-name="Path 5" d="M83.294,122.647a3.772,3.772,0,0,0,1.265.848,4.167,4.167,0,0,0,3.147,0,3.777,3.777,0,0,0,1.266-.848,4.12,4.12,0,0,0,.833-1.266,3.859,3.859,0,0,0,.307-1.527,4.05,4.05,0,0,0-.307-1.572A4.1,4.1,0,0,0,88.972,117a3.777,3.777,0,0,0-1.266-.848,4.167,4.167,0,0,0-3.147,0,3.772,3.772,0,0,0-1.265.848,4.117,4.117,0,0,0-1.142,2.854,3.86,3.86,0,0,0,.309,1.527,4.077,4.077,0,0,0,.833,1.266" transform="translate(15.337 -112.14)" fill="#fff"/>
          <path id="Path_6" data-name="Path 6" d="M136.99,133.3a6.791,6.791,0,0,0-.309-2.839,4.6,4.6,0,0,0-1.28-1.913,5.084,5.084,0,0,0-2.021-1.064,8.736,8.736,0,0,0-2.53-.293h-7.807a9.1,9.1,0,0,1-2.391-.108,4.251,4.251,0,0,1-1.574-.618,2.413,2.413,0,0,1-.864-1,3.122,3.122,0,0,1-.262-1.3,4.562,4.562,0,0,1,.324-1.127q.322-.879.8-2.036t1.064-2.484l1.111-2.515q.523-1.187.926-2.084t.525-1.2h-8.455q-.8,1.6-1.759,3.517t-1.79,3.949a37.647,37.647,0,0,0-1.4,4.074,14.194,14.194,0,0,0-.571,3.826,6.4,6.4,0,0,0,.4,2.252,5.658,5.658,0,0,0,1.265,1.975,7.576,7.576,0,0,0,2.221,1.543,11.408,11.408,0,0,0,3.272.926h3.209q1.759,0,3.5-.015t3.409-.015h3.3v7.067H101.6V127.195H82.035q-3.487.247-3.918,4.134v-.123l-.062,10.615H70v-29.1H66.2q-3.425.215-3.918,4.134,0,4.2.015,8.239t.015,8.084q0,4.012.015,8.069t.015,8.284h68.41a10.718,10.718,0,0,0,2.591-.231,4.742,4.742,0,0,0,1.991-.926,4.179,4.179,0,0,0,1.25-1.774,7.442,7.442,0,0,0,.4-2.808Zm-43.106,8.517H85.8v-7.067h8.084Z" transform="translate(11.628 -112.723)" fill="#fff"/>
        </g>
      </g>
    </g>
    <path id="Path_7" data-name="Path 7" d="M100.309,13.723A13.723,13.723,0,1,1,86.586,0a13.723,13.723,0,0,1,13.723,13.723" transform="translate(13.603)" fill="#0eb7a2"/>
    <path id="Path_8" data-name="Path 8" d="M56.441,18.1l-3.153,2.15a2.241,2.241,0,0,0-.58,3.128L69.793,48.06a3.545,3.545,0,0,0,3.113,1.523l35.659-1.994a8.455,8.455,0,1,0-1.12-16.872L76.7,33.082,72.4,22.825A10.743,10.743,0,0,0,56.441,18.1" transform="translate(9.765 3.031)" fill="#0eb7a2"/>
    <path id="Path_9" data-name="Path 9" d="M82.86,95.563A13.723,13.723,0,1,1,101.792,91.3,13.723,13.723,0,0,1,82.86,95.563" transform="translate(14.276 13.113)" fill="#0eb7a2"/>
    <path id="Path_10" data-name="Path 10" d="M106.528,55.2,106.4,51.39a2.244,2.244,0,0,0-2.334-2.163l-29.99,1.254a3.545,3.545,0,0,0-2.95,1.818L53.753,83.5a8.455,8.455,0,1,0,14.86,8.069L83.041,64.323,94.01,66.17A10.743,10.743,0,0,0,106.528,55.2" transform="translate(9.835 9.19)" fill="#0eb7a2"/>
    <path id="Path_11" data-name="Path 11" d="M22.756,65A13.723,13.723,0,1,0,15.522,47,13.722,13.722,0,0,0,22.756,65" transform="translate(2.691 7.217)" fill="#0eb7a2"/>
    <path id="Path_12" data-name="Path 12" d="M44.444,26.717l3.216-2.057a2.241,2.241,0,0,1,3.1.694l15.991,25.4a3.545,3.545,0,0,1,.178,3.46L51.1,86.231a8.456,8.456,0,1,1-15.079-7.654L50.267,51.231l-7.746-7.983a10.742,10.742,0,0,1,1.922-16.531" transform="translate(6.547 4.538)" fill="#0eb7a2"/>
  </g>
</svg>
