<svg xmlns="http://www.w3.org/2000/svg" width="145" height="145" viewBox="0 0 145 145">
    <g id="Group_44" data-name="Group 44" transform="translate(-299 -1913)">
        <g id="Group_39" data-name="Group 39">
            <circle id="Ellipse_1" data-name="Ellipse 1" cx="2.5" cy="2.5" r="2.5"
                transform="translate(299 1913)" fill="#e1e1e1" />
            <circle id="Ellipse_2" data-name="Ellipse 2" cx="2.5" cy="2.5" r="2.5"
                transform="translate(334 1913)" fill="#e1e1e1" />
            <circle id="Ellipse_3" data-name="Ellipse 3" cx="2.5" cy="2.5" r="2.5"
                transform="translate(369 1913)" fill="#e1e1e1" />
            <circle id="Ellipse_4" data-name="Ellipse 4" cx="2.5" cy="2.5" r="2.5"
                transform="translate(404 1913)" fill="#e1e1e1" />
            <circle id="Ellipse_5" data-name="Ellipse 5" cx="2.5" cy="2.5" r="2.5"
                transform="translate(439 1913)" fill="#e1e1e1" />
        </g>
        <g id="Group_40" data-name="Group 40" transform="translate(0 35)">
            <circle id="Ellipse_1-2" data-name="Ellipse 1" cx="2.5" cy="2.5" r="2.5"
                transform="translate(299 1913)" fill="#e1e1e1" />
            <circle id="Ellipse_2-2" data-name="Ellipse 2" cx="2.5" cy="2.5" r="2.5"
                transform="translate(334 1913)" fill="#e1e1e1" />
            <circle id="Ellipse_3-2" data-name="Ellipse 3" cx="2.5" cy="2.5" r="2.5"
                transform="translate(369 1913)" fill="#e1e1e1" />
            <circle id="Ellipse_4-2" data-name="Ellipse 4" cx="2.5" cy="2.5" r="2.5"
                transform="translate(404 1913)" fill="#e1e1e1" />
            <circle id="Ellipse_5-2" data-name="Ellipse 5" cx="2.5" cy="2.5" r="2.5"
                transform="translate(439 1913)" fill="#e1e1e1" />
        </g>
        <g id="Group_41" data-name="Group 41" transform="translate(0 70)">
            <circle id="Ellipse_1-3" data-name="Ellipse 1" cx="2.5" cy="2.5" r="2.5"
                transform="translate(299 1913)" fill="#e1e1e1" />
            <circle id="Ellipse_2-3" data-name="Ellipse 2" cx="2.5" cy="2.5" r="2.5"
                transform="translate(334 1913)" fill="#e1e1e1" />
            <circle id="Ellipse_3-3" data-name="Ellipse 3" cx="2.5" cy="2.5" r="2.5"
                transform="translate(369 1913)" fill="#e1e1e1" />
            <circle id="Ellipse_4-3" data-name="Ellipse 4" cx="2.5" cy="2.5" r="2.5"
                transform="translate(404 1913)" fill="#e1e1e1" />
            <circle id="Ellipse_5-3" data-name="Ellipse 5" cx="2.5" cy="2.5" r="2.5"
                transform="translate(439 1913)" fill="#e1e1e1" />
        </g>
        <g id="Group_42" data-name="Group 42" transform="translate(0 105)">
            <circle id="Ellipse_1-4" data-name="Ellipse 1" cx="2.5" cy="2.5" r="2.5"
                transform="translate(299 1913)" fill="#e1e1e1" />
            <circle id="Ellipse_2-4" data-name="Ellipse 2" cx="2.5" cy="2.5" r="2.5"
                transform="translate(334 1913)" fill="#e1e1e1" />
            <circle id="Ellipse_3-4" data-name="Ellipse 3" cx="2.5" cy="2.5" r="2.5"
                transform="translate(369 1913)" fill="#e1e1e1" />
            <circle id="Ellipse_4-4" data-name="Ellipse 4" cx="2.5" cy="2.5" r="2.5"
                transform="translate(404 1913)" fill="#e1e1e1" />
            <circle id="Ellipse_5-4" data-name="Ellipse 5" cx="2.5" cy="2.5" r="2.5"
                transform="translate(439 1913)" fill="#e1e1e1" />
        </g>
        <g id="Group_43" data-name="Group 43" transform="translate(0 140)">
            <circle id="Ellipse_1-5" data-name="Ellipse 1" cx="2.5" cy="2.5" r="2.5"
                transform="translate(299 1913)" fill="#e1e1e1" />
            <circle id="Ellipse_2-5" data-name="Ellipse 2" cx="2.5" cy="2.5" r="2.5"
                transform="translate(334 1913)" fill="#e1e1e1" />
            <circle id="Ellipse_3-5" data-name="Ellipse 3" cx="2.5" cy="2.5" r="2.5"
                transform="translate(369 1913)" fill="#e1e1e1" />
            <circle id="Ellipse_4-5" data-name="Ellipse 4" cx="2.5" cy="2.5" r="2.5"
                transform="translate(404 1913)" fill="#e1e1e1" />
            <circle id="Ellipse_5-5" data-name="Ellipse 5" cx="2.5" cy="2.5" r="2.5"
                transform="translate(439 1913)" fill="#e1e1e1" />
        </g>
    </g>
</svg>
  