<svg xmlns="http://www.w3.org/2000/svg" width="967.624" height="987.357"
    viewBox="0 0 967.624 987.357">
    <g id="Group_8" data-name="Group 8">
        <path id="Path_15" data-name="Path 15"
            d="M316.04,122.285c0,67.53-54.433,122.285-121.588,122.285S72.863,189.815,72.863,122.285,127.306,0,194.451,0,316.04,54.745,316.04,122.285"
            transform="translate(541.663)" fill="#757575" />
        <path id="Path_16" data-name="Path 16"
            d="M88.923,32.9,60.986,52.06a20.04,20.04,0,0,0-5.142,27.875L207.22,299.845A31.351,31.351,0,0,0,234.8,313.413l315.947-17.765c48.261-2.707,81.381-50.008,67.65-96.631A74.939,74.939,0,0,0,540.82,145.3l-272.4,21.075-38.1-91.4C207.031,19.12,138.677-1.215,88.923,32.9"
            transform="translate(346.102 155.425)" fill="#757575" />
        <path id="Path_20" data-name="Path 20"
            d="M133.1,295.9C76.342,259.807,59.414,184.272,95.3,127.19A121.192,121.192,0,0,1,263.046,89.174c56.757,36.091,73.685,111.626,37.8,168.708A121.183,121.183,0,0,1,133.1,295.9"
            transform="translate(575.961 672.519)" fill="#757575" />
        <path id="Path_18" data-name="Path 18"
            d="M529.789,102.506l-1.167-33.987A19.933,19.933,0,0,0,507.94,49.242L242.221,60.419a31.388,31.388,0,0,0-26.139,16.2L62.183,354.68c-23.521,42.489-1.462,95.912,45.054,109.152a74.75,74.75,0,0,0,86.607-37.244L321.689,183.772l97.184,16.454c59.385,10.046,113-37.191,110.916-97.721"
            transform="translate(349.635 471.308)" fill="#757575" />
        <path id="Path_19" data-name="Path 19"
            d="M88.3,273.438c61.761,26.511,133.2-2.348,159.556-64.463s-2.334-133.96-64.1-160.471-133.2,2.348-159.556,64.463,2.334,133.96,64.1,160.471"
            transform="translate(-14.417 370.126)" fill="#757575" />
        <path id="Path_17" data-name="Path 17"
            d="M118.148,45.782l28.494-18.326a19.792,19.792,0,0,1,27.506,6.186L315.829,259.993a31.742,31.742,0,0,1,1.577,30.836L177.144,576.113C155.716,619.7,99.454,631.746,62.212,600.752a75.66,75.66,0,0,1-18.674-92.846l126.2-243.683-68.627-71.136c-41.931-43.462-33.7-114.672,17.033-147.305"
            transform="translate(182.062 232.733)" fill="#757575" />
    </g>
</svg>
  