<svg xmlns="http://www.w3.org/2000/svg" width="754.239" height="765.232"
    viewBox="0 0 754.239 765.232">
    <g id="Group_30" data-name="Group 30" transform="translate(-2431.693 -1641)">
        <path id="Path_15" data-name="Path 15"
            d="M262.413,94.775A94.775,94.775,0,1,1,167.638,0a94.776,94.776,0,0,1,94.775,94.775"
            transform="translate(2837.838 1641)" fill="#04473f" />
        <path id="Path_16" data-name="Path 16"
            d="M80.849,29.149,59.073,44a15.476,15.476,0,0,0-4.008,21.6L173.058,236.041a24.485,24.485,0,0,0,21.5,10.515l246.273-13.769a58.395,58.395,0,1,0-7.737-116.526L220.766,132.6l-29.7-70.835A74.194,74.194,0,0,0,80.849,29.149"
            transform="translate(2689.935 1757.808)" fill="#04473f" />
        <path id="Path_20" data-name="Path 20"
            d="M120.61,245.132a94.775,94.775,0,1,1,130.754-29.464A94.777,94.777,0,0,1,120.61,245.132"
            transform="translate(2863.777 2146.421)" fill="#04473f" />
        <path id="Path_18" data-name="Path 18"
            d="M424.575,90.519l-.91-26.341a15.5,15.5,0,0,0-16.121-14.941L200.422,57.9a24.482,24.482,0,0,0-20.375,12.556L60.088,285.962a58.394,58.394,0,1,0,102.627,55.731L262.366,153.5l75.753,12.752a74.194,74.194,0,0,0,86.456-75.736"
            transform="translate(2692.607 1995.204)" fill="#04473f" />
        <path id="Path_19" data-name="Path 19"
            d="M72.01,220.62A94.773,94.773,0,1,0,22.049,96.25,94.772,94.772,0,0,0,72.01,220.62"
            transform="translate(2417.276 1919.163)" fill="#04473f" />
        <path id="Path_17" data-name="Path 17"
            d="M99.827,40.951l22.21-14.2a15.48,15.48,0,0,1,21.44,4.794L253.914,206.971a24.479,24.479,0,0,1,1.229,23.9l-109.331,221.1A58.4,58.4,0,1,1,41.67,399.111L140.043,210.25,86.55,155.117A74.191,74.191,0,0,1,99.827,40.951"
            transform="translate(2565.872 1815.907)" fill="#04473f" />
    </g>
</svg>
  